<svg width="113" height="112" viewBox="0 0 113 112" fill="none" xmlns="http://www.w3.org/2000/svg">
<g clip-path="url(#clip0_3026_3160)">
<path d="M56.5001 112C87.4281 112 112.5 86.9281 112.5 56.0001C112.5 25.0721 87.4281 0 56.5001 0C25.5721 0 0.5 25.0721 0.5 56.0001C0.5 86.9281 25.5721 112 56.5001 112Z" fill="#D3E5E5"/>
<path fill-rule="evenodd" clip-rule="evenodd" d="M48.3191 50.6102C41.9084 51.8179 37.6083 54.1628 35.8725 60.2782C34.038 66.7406 35.7748 74.471 37.677 80.0002C40.8464 89.2159 50.6076 103.172 62.4107 96.4516C74.0082 89.8481 84.7516 58.4923 67.9017 51.7619C63.0217 49.8124 53.8821 49.5625 48.3191 50.6102Z" fill="white"/>
<path fill-rule="evenodd" clip-rule="evenodd" d="M47.8476 11.4258H63.8719C73.6797 11.4258 81.7042 19.4499 81.7042 29.2577C81.7042 39.0656 73.6797 47.0897 63.8719 47.0897H47.8476C38.0404 47.0897 30.0156 39.0656 30.0156 29.2577C30.0156 19.4499 38.0404 11.4258 47.8476 11.4258Z" fill="white"/>
<path fill-rule="evenodd" clip-rule="evenodd" d="M63.8721 18.3867H47.8473C42.2625 18.3867 37.6934 22.9561 37.6934 28.5405V29.9743C37.6934 35.5588 42.2625 40.1281 47.8473 40.1281H58.7246L63.6361 44.5587V40.1281H63.872C69.4567 40.1281 74.0258 35.5588 74.0258 29.9743V28.5405C74.0258 22.9561 69.4567 18.3867 63.872 18.3867H63.8721Z" fill="#232828"/>
<path d="M57.2574 79.9337H54.4621C52.9965 79.9337 51.8085 78.7444 51.8085 77.279V73.6434H48.2004C46.7344 73.6434 45.5469 72.4548 45.5469 70.9896V68.1578C45.5469 66.6925 46.7344 65.505 48.2004 65.505H51.8085V61.8695C51.8085 60.4023 52.9965 59.2148 54.4621 59.2148H57.2574C58.7225 59.2148 59.9119 60.4023 59.9119 61.8695V65.505H63.5181C64.9834 65.505 66.1727 66.6925 66.1727 68.1578V70.9896C66.1727 72.4548 64.9834 73.6434 63.5181 73.6434H59.9119V77.279C59.9119 78.7444 58.7225 79.9337 57.2574 79.9337Z" fill="#1A837C"/>
<path fill-rule="evenodd" clip-rule="evenodd" d="M63.0799 24.8574C64.3566 24.8574 65.3905 25.892 65.3905 27.1682C65.3905 28.4446 64.3566 29.4788 63.0799 29.4788C61.804 29.4788 60.7695 28.4446 60.7695 27.1682C60.7695 25.892 61.804 24.8574 63.0799 24.8574Z" fill="white"/>
<path fill-rule="evenodd" clip-rule="evenodd" d="M48.6386 24.8574C49.9153 24.8574 50.9493 25.892 50.9493 27.1682C50.9493 28.4446 49.9153 29.4788 48.6386 29.4788C47.3627 29.4788 46.3281 28.4446 46.3281 27.1682C46.3281 25.892 47.3627 24.8574 48.6386 24.8574Z" fill="white"/>
<path d="M59.1104 32.4229C58.2997 33.3318 56.8078 33.8908 55.1941 33.8908C53.5646 33.8908 52.0607 33.3205 51.2559 32.3984" stroke="white" stroke-width="0.666546" stroke-miterlimit="22.9256"/>
<path fill-rule="evenodd" clip-rule="evenodd" d="M35.5829 56.1289C28.3244 59.1164 23.993 69.2162 27.9139 75.3748C30.7165 79.7768 31.997 85.6675 33.9226 80.4087C34.7184 78.2355 34.4371 78.2013 34.0948 75.9074L32.3663 64.3249C31.8874 61.1155 33.2659 58.2587 35.583 56.1289H35.5829Z" fill="white"/>
<path fill-rule="evenodd" clip-rule="evenodd" d="M76.1368 56.1289C83.3953 59.1149 87.7267 69.2098 83.8059 75.3653C81.0032 79.7653 79.7228 85.653 77.7971 80.3969C77.0013 78.2247 77.2826 78.1905 77.6249 75.8978L79.3534 64.3209C79.8324 61.1131 78.4539 58.2577 76.1367 56.1289H76.1368Z" fill="white"/>
<path fill-rule="evenodd" clip-rule="evenodd" d="M45.506 92.9044C46.7082 94.6996 49.9591 96.6731 51.9784 97.4796C53.0862 97.9222 54.2095 98.1651 55.326 98.2379H56.7849C60.8972 97.9721 64.7874 95.5088 67.3311 92.2535C70.7595 87.8661 73.3813 83.2686 74.9494 77.7765C76.1928 73.4217 77.1962 67.9115 76.4218 63.3218C75.6629 58.8253 74.0273 55.4219 70.2676 52.9043L71.921 56.013C73.6293 59.6574 73.5548 64.415 73.1256 68.3336C72.5435 73.646 70.4943 78.7402 68.4922 82.7479C67.9866 83.7601 67.3458 84.8009 66.7273 85.7448C64.8124 88.6687 62.8959 91.1937 59.8713 93.1746C56.5854 95.3269 52.4054 96.0773 48.6856 94.4867C47.7825 94.1007 46.2177 93.0946 45.5059 92.9045L45.506 92.9044Z" fill="#F4FAFA"/>
<path fill-rule="evenodd" clip-rule="evenodd" d="M45.3156 92.7141V92.5234L45.0938 92.6824L45.3156 92.7141Z" fill="#F4FAFA"/>
<path fill-rule="evenodd" clip-rule="evenodd" d="M45.5071 92.9051L45.3164 92.7148L45.5071 92.9051Z" fill="#F4FAFA"/>
<path fill-rule="evenodd" clip-rule="evenodd" d="M83.2199 68.5225C83.2199 69.7923 82.8862 71.197 82.5355 72.219L77.8867 80.9033C77.8916 80.9477 78.4273 82.4271 79.4104 82.4271C80.5398 82.4271 82.2781 78.0574 82.9193 76.9836C84.477 74.3742 85.315 73.2021 85.315 69.6652C85.315 65.8169 83.2376 61.7521 80.7923 59.3309C80.1136 58.659 78.8257 57.3444 77.8868 57.0938C78.707 58.3187 79.8116 58.6227 81.5091 61.8525C82.3118 63.3799 83.22 66.1995 83.22 68.5224L83.2199 68.5225Z" fill="#F4FAFA"/>
<path fill-rule="evenodd" clip-rule="evenodd" d="M33.5069 57.2852C32.1135 57.6572 29.5723 60.8578 28.7802 62.0822C26.8933 64.9987 25.5967 70.1072 27.0262 73.6708C27.5868 75.0683 28.1229 75.6999 28.7475 76.9019C29.2825 77.9312 29.7326 79.0288 30.3491 80.0621C31.3785 81.7876 31.3453 82.4282 32.9354 82.4282C33.3438 81.8186 33.5395 81.3725 33.8878 80.7139C33.6001 80.2841 33.3283 80.0212 33.0115 79.4949C32.7116 78.9962 32.5642 78.6402 32.3006 78.1108C30.7433 74.9867 28.6983 72.2542 28.5523 69.2875C28.2266 62.672 31.7002 59.9835 33.5069 57.2852Z" fill="#F4FAFA"/>
<path fill-rule="evenodd" clip-rule="evenodd" d="M33.5078 57.2846H33.6985L33.5395 57.0625L33.5078 57.2846Z" fill="#F4FAFA"/>
</g>
<defs>
<clipPath id="clip0_3026_3160">
<rect width="112" height="112" fill="white" transform="translate(0.5)"/>
</clipPath>
</defs>
</svg>
