<?xml version="1.0" encoding="utf-8"?>

<!DOCTYPE svg PUBLIC "-//W3C//DTD SVG 1.1//EN" "http://www.w3.org/Graphics/SVG/1.1/DTD/svg11.dtd">
<!-- Uploaded to: SVG Repo, www.svgrepo.com, Generator: SVG Repo Mixer Tools -->
<svg height="800px" width="800px" version="1.1" id="_x32_" xmlns="http://www.w3.org/2000/svg" xmlns:xlink="http://www.w3.org/1999/xlink" 
	 viewBox="0 0 512 512"  xml:space="preserve">
<style type="text/css">
	.st0{fill:#000000;}
</style>
<g>
	<path class="st0" d="M256.029,55.524c51.984,0,96.125,34.91,109.938,82.59h57.051C408.095,59.547,338.898,0,256.029,0
		c-82.871,0-152.068,59.547-166.99,138.113h57.051C159.9,90.434,203.975,55.524,256.029,55.524z"/>
	<path class="st0" d="M435.967,169.367H76.033c-34.508,0-62.742,28.23-62.742,62.742v217.149c0,34.508,28.234,62.742,62.742,62.742
		h359.934c34.508,0,62.742-28.234,62.742-62.742V232.109C498.709,197.598,470.475,169.367,435.967,169.367z M347.193,371.914
		h-59.961v59.961h-62.465v-59.961h-59.963v-62.465h59.963v-59.961h62.465v59.961h59.961V371.914z M466.693,449.27
		c0,16.961-13.76,30.719-30.721,30.719h-74.478l105.199-105.199V449.27z"/>
</g>
</svg>