<?xml version="1.0" encoding="iso-8859-1"?>
<!-- Uploaded to: SVG Repo, www.svgrepo.com, Generator: SVG Repo Mixer Tools -->
<svg version="1.1" id="Layer_1" xmlns="http://www.w3.org/2000/svg" xmlns:xlink="http://www.w3.org/1999/xlink" 
	 viewBox="0 0 403.38 403.38" xml:space="preserve">
<g>
	<rect x="63.947" y="2.9" style="fill:#4FD3A7;" width="10" height="400.48"/>
	<rect x="53.947" y="2.9" style="fill:#C3FCE7;" width="10" height="400.48"/>
	<polyline style="fill:#4FD3A7;" points="71.947,403.38 71.947,2.9 349.433,2.9 349.433,403.38 71.947,403.38 	"/>
	<polyline style="fill:#60E8BE;" points="81.947,12.9 339.433,12.9 339.433,393.38 81.947,393.38 81.947,12.9 	"/>
	<path style="fill:#FFFFFF;" d="M281.4,273.852c-38.99,38.99-102.425,38.982-141.414-0.007c-38.99-38.99-38.99-102.418,0-141.407
		c38.99-38.99,102.424-38.997,141.414-0.007C320.39,171.42,320.39,234.862,281.4,273.852"/>
	<path style="fill:#E6E6E6;" d="M281.4,273.852c-38.99,38.99-102.425,38.982-141.414-0.007L281.4,132.431
		C320.39,171.42,320.39,234.862,281.4,273.852"/>
	<path style="fill:#F2F2F2;" d="M274.332,266.776c-24.39,24.39-59.3,31.86-90.13,22.38c-13.6-4.16-26.4-11.62-37.15-22.38
		c-35.14-35.15-35.14-92.13,0-127.27c26.23-26.23,64.62-32.89,97.02-19.96c11.02,4.39,21.34,11.04,30.26,19.96
		C309.471,174.646,309.471,231.626,274.332,266.776"/>
	<polyline style="fill:#FF5069;" points="278.38,179.601 278.38,226.684 234.235,226.684 234.235,270.832 187.148,270.832 
		187.148,226.684 143.004,226.684 143.004,179.601 187.148,179.601 187.148,135.456 234.235,135.456 234.235,179.601 
		278.38,179.601 	"/>
	<path style="fill:#F6F6F6;" d="M244.071,119.546l-9.836,27.865V179.6h44.145v47.083h-44.145v44.148h-43.566l-6.468,18.324
		c8.624,2.652,17.566,3.977,26.509,3.977c23.027,0,46.053-8.79,63.621-26.357c17.57-17.575,26.355-40.608,26.355-63.639
		s-8.785-46.061-26.355-63.631c-0.001-0.001-0.002-0.002-0.004-0.003C265.409,130.584,255.09,123.936,244.071,119.546
		L244.071,119.546"/>
	<polyline style="fill:#FF8697;" points="234.235,147.411 190.669,270.832 234.235,270.832 234.235,226.684 278.38,226.684 
		278.38,179.601 234.235,179.601 234.235,147.411 	"/>
	<polygon style="fill:#C3FCE7;" points="71.947,403.38 81.947,393.38 81.947,12.9 339.433,12.9 349.433,2.9 71.947,2.9 	"/>
	<polygon style="fill:#4FD3A7;" points="321.472,91.201 296.723,68.702 271.975,91.201 271.975,12.9 321.472,12.9 	"/>
	<polygon style="fill:#4FD3A7;" points="321.472,12.9 315.472,0 271.975,12.9 	"/>
	<polygon style="fill:#FF5069;" points="315.472,85.201 290.723,62.702 265.975,85.201 265.975,0 315.472,0 	"/>
</g>
</svg>