<!DOCTYPE svg PUBLIC "-//W3C//DTD SVG 1.1//EN" "http://www.w3.org/Graphics/SVG/1.1/DTD/svg11.dtd">
<!-- Uploaded to: SVG Repo, www.svgrepo.com, Transformed by: SVG Repo Mixer Tools -->
<svg width="800px" height="800px" viewBox="-25.6 -25.6 307.20 307.20" xmlns="http://www.w3.org/2000/svg" fill="#cfcfcf" stroke="#cfcfcf">
<g id="SVGRepo_bgCarrier" stroke-width="0"/>
<g id="SVGRepo_tracerCarrier" stroke-linecap="round" stroke-linejoin="round"/>
<g id="SVGRepo_iconCarrier"> <defs> <style>.cls-1{fill:#bab5b5;}.cls-2{fill:#fdbac0;}.cls-3{fill:#212526;}.cls-4{fill:#cbecf9;}.cls-5{fill:#ffffff;}.cls-6{fill:#f5f5f4;}.cls-7{fill:#fb98ac;}.cls-8{fill:#d4ffd4;}.cls-9{fill:#f57a7a;}.cls-10{fill:#bbf1ff;}.cls-11{fill:#fff4c5;}</style> </defs> <title>business economic finance interprise company idea</title> <g id="Layer_2" data-name="Layer 2"> <path class="cls-1" d="M104,182h48a0,0,0,0,1,0,0v28a12,12,0,0,1-12,12H116a12,12,0,0,1-12-12V182A0,0,0,0,1,104,182Z"/> <path class="cls-2" d="M104,188.74v15.08a12,12,0,0,0,12,12h18.69a12,12,0,0,0,12-12V188.74Z"/> <path class="cls-3" d="M140,224H116a14,14,0,0,1-14-14V182a2,2,0,0,1,2-2h48a2,2,0,0,1,2,2v28A14,14,0,0,1,140,224Zm-34-40v26a10,10,0,0,0,10,10h24a10,10,0,0,0,10-10V184Z"/> <rect class="cls-4" x="93.29" y="165.42" width="69.42" height="16.58" rx="4" ry="4"/> <rect class="cls-5" x="93.29" y="165.42" width="64.42" height="10.58" rx="4" ry="4"/> <path class="cls-3" d="M158.71,184H97.29a6,6,0,0,1-6-6v-8.58a6,6,0,0,1,6-6h61.42a6,6,0,0,1,6,6V178A6,6,0,0,1,158.71,184ZM97.29,167.42a2,2,0,0,0-2,2V178a2,2,0,0,0,2,2h61.42a2,2,0,0,0,2-2v-8.58a2,2,0,0,0-2-2Z"/> <path class="cls-6" d="M187.93,91.15A60,60,0,0,1,158,146a12,12,0,0,0-6,10.38v9.07H104v-9.07A12,12,0,0,0,98,146a60,60,0,1,1,89.93-54.81Z"/> <circle class="cls-7" cx="124.86" cy="89.71" r="55.22"/> <path class="cls-6" d="M169.13,86a4,4,0,0,0-4,4v11.13a4,4,0,0,1-4,4H160a12,12,0,0,0-12,12v.15a4,4,0,0,1-2.18,3.56v-1.3a10.92,10.92,0,0,0-10.91-10.91,2.91,2.91,0,0,1-2.91-2.91V93.58a10.92,10.92,0,0,0-10.91-10.91,2.91,2.91,0,0,1-2.91-2.91V74a2.91,2.91,0,0,1,2.91-2.91,10.85,10.85,0,0,0,10.15-6.91h2.59a4,4,0,0,1,4,4v.68a4,4,0,0,0,8,0v-.68a11.86,11.86,0,0,0-3.07-8,11.86,11.86,0,0,0,3.07-8V47.75a4,4,0,1,0-8,0v4.44a4,4,0,0,1-4,4H132V33.88h-8V60.19a2.91,2.91,0,0,1-2.91,2.91,10.85,10.85,0,0,0-10.17,7A12,12,0,0,0,100,82v.15a4,4,0,0,1-4,4H94.88a12,12,0,0,0-12,12v11.13a4,4,0,0,0,8,0V98.16a4,4,0,0,1,4-4H96a12,12,0,0,0,12-12V82a4,4,0,0,1,2.18-3.56v1.3a10.92,10.92,0,0,0,10.91,10.91A2.91,2.91,0,0,1,124,93.58v12.14a10.92,10.92,0,0,0,10.91,10.91,2.91,2.91,0,0,1,2.91,2.91v5.74a2.91,2.91,0,0,1-2.91,2.91,10.85,10.85,0,0,0-10.15,6.91h-2.59a4,4,0,0,1-4-4v-.68a4,4,0,0,0-8,0v.68a11.86,11.86,0,0,0,3.07,8,11.86,11.86,0,0,0-3.07,8v4.44a4,4,0,0,0,8,0V147.1a4,4,0,0,1,4-4H124v22.32a3.94,3.94,0,0,0,.05.52h7.89a3.94,3.94,0,0,0,.05-.52V139.1a2.92,2.92,0,0,1,2.91-2.91,10.85,10.85,0,0,0,10.17-7,12,12,0,0,0,10.92-12v-.15a4,4,0,0,1,4-4h1.13a12,12,0,0,0,12-12V90A4,4,0,0,0,169.13,86Z"/> <path class="cls-6" d="M174.71,131a4,4,0,0,0-2.27-.71H154.33a12,12,0,0,0-12,12v4.37a4,4,0,0,0,8,0V142.3a4,4,0,0,1,4-4h15.22C171.24,135.85,172.92,133.4,174.71,131Z"/> <path class="cls-6" d="M186.33,78.1h-9.2a4,4,0,0,1-4-4V71.33a4,4,0,0,0-8,0V74.1a12,12,0,0,0,12,12h9.2Z"/> <path class="cls-6" d="M156,42.38a3.66,3.66,0,0,1-.69-.43,4,4,0,0,0-.1.88V75.38a4,4,0,0,1-4,4H139.63a4,4,0,0,0,0,8h5.81V97.69a4,4,0,1,0,8,0V87.17a12.07,12.07,0,0,0,9.81-11.79V45.92C160.75,44.93,158.49,43.48,156,42.38Z"/> <path class="cls-6" d="M83.55,69a4,4,0,0,1,0-8h18.11a4,4,0,0,0,4-4V52.62a4,4,0,1,1,8,0V57a12,12,0,0,1-12,12Z"/> <path class="cls-6" d="M78.88,113.19H72.64a4,4,0,0,0-1.34.25c.76,2.59,1.41,5.22,2.29,7.75h5.28a4,4,0,0,1,4,4V128a4,4,0,0,0,8,0v-2.77A12,12,0,0,0,78.88,113.19Z"/> <path class="cls-6" d="M116.38,111.91h-5.81V101.6a4,4,0,0,0-8,0v10.53a12.07,12.07,0,0,0-9.81,11.79v20.44l.18.08c2.35,1,4.68,2.05,6.91,3.3a4,4,0,0,0,.91-2.51V123.91a4,4,0,0,1,4-4h11.63a4,4,0,0,0,0-8Z"/> <path class="cls-3" d="M152,167.42H104a2,2,0,0,1-2-2v-9.07a10,10,0,0,0-5-8.65A62.21,62.21,0,0,1,66,94a62,62,0,0,1,64.94-61.93c31.62,1.46,57.53,27.37,59,59h0A61.88,61.88,0,0,1,159,147.71a10,10,0,0,0-5,8.65v9.07A2,2,0,0,1,152,167.42Zm-46-4h44v-7.07a14,14,0,0,1,7-12.11,57.9,57.9,0,0,0,28.95-53h0a58.36,58.36,0,0,0-55.18-55.18A58,58,0,0,0,70,94a58.2,58.2,0,0,0,29,50.24,14,14,0,0,1,7,12.12Z"/> <path class="cls-3" d="M169.13,88a2,2,0,0,0-2,2v11.13a6,6,0,0,1-6,6H160a10,10,0,0,0-10,10v.15a6,6,0,0,1-6,6h-.18v-3.74a8.92,8.92,0,0,0-8.91-8.91,4.92,4.92,0,0,1-4.91-4.91V93.58a8.92,8.92,0,0,0-8.91-8.91,4.92,4.92,0,0,1-4.91-4.91V74a4.92,4.92,0,0,1,4.91-4.91,8.92,8.92,0,0,0,8.68-6.91h4.06a6,6,0,0,1,6,6v.68a2,2,0,0,0,4,0v-.68a10,10,0,0,0-4-8,10,10,0,0,0,4-8V47.75a2,2,0,1,0-4,0v4.44a6,6,0,0,1-6,6H130V33.87a2,2,0,0,0-.16-.79h-3.67a2,2,0,0,0-.16.79V60.19a4.92,4.92,0,0,1-4.91,4.91A8.92,8.92,0,0,0,112.41,72H112a10,10,0,0,0-10,10v.15a6,6,0,0,1-6,6H94.88a10,10,0,0,0-10,10v11.13a2,2,0,0,0,4,0V98.16a6,6,0,0,1,6-6H96a10,10,0,0,0,10-10V82a6,6,0,0,1,6-6h.18v3.74a8.92,8.92,0,0,0,8.91,8.91A4.92,4.92,0,0,1,126,93.58v12.14a8.92,8.92,0,0,0,8.91,8.91,4.92,4.92,0,0,1,4.91,4.91v5.74a4.92,4.92,0,0,1-4.91,4.91,8.92,8.92,0,0,0-8.68,6.91h-4.06a6,6,0,0,1-6-6v-.68a2,2,0,0,0-4,0v.68a10,10,0,0,0,4,8,10,10,0,0,0-4,8v4.44a2,2,0,0,0,4,0V147.1a6,6,0,0,1,6-6H126v24.32a2,2,0,1,0,4,0V139.1a4.92,4.92,0,0,1,4.91-4.91,8.92,8.92,0,0,0,8.68-6.91H144a10,10,0,0,0,10-10v-.15a6,6,0,0,1,6-6h1.13a10,10,0,0,0,10-10V90A2,2,0,0,0,169.13,88Z"/> <path class="cls-3" d="M172.45,132.3H154.33a10,10,0,0,0-10,10v4.37a2,2,0,0,0,4,0V142.3a6,6,0,0,1,6-6h18.11a2,2,0,0,0,0-4Z"/> <path class="cls-3" d="M186.81,80.1h-9.69a6,6,0,0,1-6-6V71.33a2,2,0,0,0-4,0V74.1a10,10,0,0,0,10,10h9.69a2,2,0,0,0,0-4Z"/> <path class="cls-3" d="M137.63,83.38a2,2,0,0,0,2,2h7.81V97.69a2,2,0,0,0,4,0V85.37a10,10,0,0,0,9.81-10V42.83a2,2,0,1,0-4,0V75.38a6,6,0,0,1-6,6H139.63A2,2,0,0,0,137.63,83.38Z"/> <path class="cls-3" d="M83.55,67h18.11a10,10,0,0,0,10-10V52.62a2,2,0,1,0-4,0V57a6,6,0,0,1-6,6H83.55a2,2,0,0,0,0,4Z"/> <path class="cls-3" d="M78.88,115.19H72.64a2,2,0,0,0,0,4h6.23a6,6,0,0,1,6,6V128a2,2,0,0,0,4,0v-2.77A10,10,0,0,0,78.88,115.19Z"/> <path class="cls-3" d="M118.38,115.91a2,2,0,0,0-2-2h-7.81V101.6a2,2,0,0,0-4,0v12.32a10,10,0,0,0-9.81,10v21.31a2,2,0,0,0,4,0V123.91a6,6,0,0,1,6-6h11.63A2,2,0,0,0,118.38,115.91Z"/> <circle class="cls-8" cx="129" cy="7.5" r="5"/> <circle class="cls-8" cx="85" cy="210.5" r="4"/> <circle class="cls-8" cx="36" cy="65.5" r="3"/> <circle class="cls-8" cx="202" cy="107.5" r="2"/> <circle class="cls-8" cx="198" cy="177.5" r="1"/> <circle class="cls-9" cx="175" cy="221.5" r="5"/> <circle class="cls-9" cx="187" cy="173.5" r="4"/> <circle class="cls-9" cx="57" cy="150.5" r="3"/> <circle class="cls-9" cx="206" cy="18.5" r="2"/> <circle class="cls-9" cx="110" cy="19.5" r="1"/> <circle class="cls-10" cx="28" cy="105.5" r="5"/> <circle class="cls-10" cx="132" cy="249.5" r="4"/> <circle class="cls-10" cx="215" cy="125.5" r="3"/> <circle class="cls-10" cx="200" cy="80.5" r="2"/> <circle class="cls-10" cx="31" cy="213.5" r="1"/> <circle class="cls-11" cx="77" cy="41.5" r="5"/> <circle class="cls-11" cx="197" cy="51.5" r="4"/> <circle class="cls-11" cx="66" cy="173.5" r="3"/> <circle class="cls-11" cx="54" cy="114.5" r="2"/> <circle class="cls-11" cx="232" cy="204.5" r="1"/> </g> </g>
</svg>